<?xml version="1.0" encoding="utf-8"?>
<!-- Generator: Adobe Illustrator 22.1.0, SVG Export Plug-In . SVG Version: 6.00 Build 0)  -->
<svg version="1.1" id="Layer_1" xmlns="http://www.w3.org/2000/svg" xmlns:xlink="http://www.w3.org/1999/xlink" x="0px" y="0px"
	 viewBox="0 0 612 792" style="enable-background:new 0 0 612 792;" xml:space="preserve">
<style type="text/css">
	.st0{fill:#F59F52;}
	.st1{fill:#FFFFFF;}
</style>
<g>
	<path class="st0" d="M303.2,359.2c-2-0.5-4.1-0.8-6.2-0.9c-0.1,0-0.1,0-0.2,0c0,0-0.1,0-0.1,0c0,0-0.1,0-0.1,0c-0.1,0-0.1,0-0.2,0
		c-2.1,0.1-4.2,0.3-6.2,0.9c-12.5,3.2-21.4,14.5-21.6,27.4c-0.2,15.2,25.5,59.8,26.6,61.7l1.5,2.7l1.5-2.7
		c1.1-1.9,26.8-46.5,26.6-61.7C324.7,373.7,315.8,362.4,303.2,359.2z"/>
	<g>
		<path class="st1" d="M333.8,293.4c2-8.9,3.2-18.3,3.2-28.1c0-56.8-40.2-102.7-40.2-102.7s-40.2,45.9-40.2,102.7
			c0,9.7,1.2,19.1,3.2,28.1c-16.3,11.5-27.3,32.2-27.3,56l42.8-14.2c2.7,5.3,5.5,10,8.1,14.2h26.9c2.7-4.2,5.4-8.9,8.1-14.2
			l42.8,14.2C361.1,325.6,350.1,304.9,333.8,293.4z M296.8,265.4c-10.4,0-18.7-8.4-18.7-18.7c0-10.4,8.3-18.7,18.7-18.7
			c10.4,0,18.7,8.3,18.7,18.7C315.4,257,307.1,265.4,296.8,265.4z"/>
	</g>
</g>
</svg>
